HIERARCHY
ROOT Pelvis
{
	OFFSET 0.000000 0.000000 0.000000
	CHANNELS 6 Xposition Yposition Zposition Xrotation Yrotation Zrotation
	JOINT LeftUpLeg_virtual
	{
		OFFSET 0.000000 0.000000 0.000000
		CHANNELS 3 Xrotation Yrotation Zrotation
		JOINT LeftUpLeg
		{
			OFFSET 18.735201 -5.666702 -4.541200
			CHANNELS 3 Xrotation Yrotation Zrotation
			JOINT LeftLeg
			{
				OFFSET -0.021200 -31.938179 0.493100
				CHANNELS 3 Xrotation Yrotation Zrotation
				JOINT LeftFoot
				{
					OFFSET 0.021200 -31.938179 -4.336299
					CHANNELS 3 Xrotation Yrotation Zrotation
					JOINT LeftToeBase
					{
						OFFSET 0.943001 -26.722000 15.023500
						CHANNELS 3 Xrotation Yrotation Zrotation
						End Site
						{
							OFFSET 0 0 0
						}
					}
				}
			}
		}
	}
	JOINT RightUpLeg_virtual
	{
		OFFSET 0.000000 0.000000 0.000000
		CHANNELS 3 Xrotation Yrotation Zrotation
		JOINT RightUpLeg
		{
			OFFSET -18.735201 -5.666702 -4.541200
			CHANNELS 3 Xrotation Yrotation Zrotation
			JOINT RightLeg
			{
				OFFSET 0.018946 -31.938133 0.493100
				CHANNELS 3 Xrotation Yrotation Zrotation
				JOINT RightFoot
				{
					OFFSET -0.018946 -31.938126 -4.336299
					CHANNELS 3 Xrotation Yrotation Zrotation
					JOINT RightToeBase
					{
						OFFSET -0.943001 -26.722004 15.023500
						CHANNELS 3 Xrotation Yrotation Zrotation
						End Site
						{
							OFFSET 0 0 0
						}
					}
				}
			}
		}
	}
	JOINT Hips_virtual
	{
		OFFSET 0.000000 0.000000 0.000000
		CHANNELS 3 Xrotation Yrotation Zrotation
		JOINT Hips
		{
			OFFSET -0.000000 -0.000000 -0.000000
			CHANNELS 3 Xrotation Yrotation Zrotation
			JOINT Spine
			{
				OFFSET 0.000000 10.199997 -0.299500
				CHANNELS 3 Xrotation Yrotation Zrotation
				JOINT Spine1
				{
					OFFSET 0.000000 11.900002 -1.516600
					CHANNELS 3 Xrotation Yrotation Zrotation
					JOINT Spine2
					{
						OFFSET 0.000000 13.600006 -2.842500
						CHANNELS 3 Xrotation Yrotation Zrotation
						JOINT Neck_virtual
						{
							OFFSET 0.000000 0.000000 0.000000
							CHANNELS 3 Xrotation Yrotation Zrotation
							JOINT Neck
							{
								OFFSET 0.000000 9.624100 -2.890100
								CHANNELS 3 Xrotation Yrotation Zrotation
								JOINT Head
								{
									OFFSET 0.000000 14.068802 -1.351900
									CHANNELS 3 Xrotation Yrotation Zrotation
									End Site
									{
										OFFSET 0 0 0
									}
								}
							}
						}
						JOINT LeftShoulder_virtual
						{
							OFFSET 0.000000 0.000000 0.000000
							CHANNELS 3 Xrotation Yrotation Zrotation
							JOINT LeftShoulder
							{
								OFFSET 15.263000 10.923401 -0.547700
								CHANNELS 3 Xrotation Yrotation Zrotation
								JOINT LeftArm
								{
									OFFSET 25.438599 -2.830597 -13.032500
									CHANNELS 3 Xrotation Yrotation Zrotation
									JOINT LeftForeArm
									{
										OFFSET 29.960503 0.000000 0.000000
										CHANNELS 3 Xrotation Yrotation Zrotation
										JOINT LeftHand
										{
											OFFSET 27.849251 0.000000 0.000000
											CHANNELS 3 Xrotation Yrotation Zrotation
											End Site
											{
												OFFSET 0 0 0
											}
										}
									}
								}
							}
						}
						JOINT RightShoulder_virtual
						{
							OFFSET 0.000000 0.000000 0.000000
							CHANNELS 3 Xrotation Yrotation Zrotation
							JOINT RightShoulder
							{
								OFFSET -15.263000 10.923401 -0.547700
								CHANNELS 3 Xrotation Yrotation Zrotation
								JOINT RightArm
								{
									OFFSET -25.438599 -2.830597 -13.032500
									CHANNELS 3 Xrotation Yrotation Zrotation
									JOINT RightForeArm
									{
										OFFSET -29.960503 0.000000 0.000000
										CHANNELS 3 Xrotation Yrotation Zrotation
										JOINT RightHand
										{
											OFFSET -27.849251 0.000000 0.000000
											CHANNELS 3 Xrotation Yrotation Zrotation
											End Site
											{
												OFFSET 0 0 0
											}
										}
									}
								}
							}
						}
					}
				}
			}
		}
	}
}
MOTION
Frames: 8
Frame Time: 0.03333333
0.732080 89.248192 0.257734 0.000000 0.000000 0.000000 2.062063 -10.311444 -1.747706 -42.127869 0.941187 8.842506 36.195993 0.227531 2.962967 4.043712 0.262313 -5.808323 0.000000 0.000000 0.000000 2.062063 -10.311444 -1.747706 -11.307762 -10.757224 -14.361767 34.997220 -9.521285 2.937571 -20.724517 -3.772223 14.762718 0.000000 0.000000 0.000000 2.062063 -10.311444 -1.747706 0.000000 0.000000 0.000000 21.574530 5.650512 1.366824 2.971775 1.798109 -0.052723 0.000000 0.000000 0.000000 2.970862 1.873018 -0.065766 -0.740316 3.043025 0.358546 0.000000 0.000000 0.000000 2.970862 1.873018 -0.065766 1.350328 -32.914019 3.985053 -22.769897 -14.531422 -67.625928 -0.000006 -44.195719 -9.360777 0.000000 0.000000 0.000000 2.970862 1.873018 -0.065766 9.555394 22.112637 -11.863558 -43.977826 10.617614 77.772987 -0.000009 50.389051 2.241450 0.000000 0.000000 0.000000 
0.836368 89.246529 0.525496 0.000000 0.000000 0.000000 2.140627 -9.922043 -1.729453 -42.217782 0.962686 8.542445 36.384510 0.012882 3.013472 3.836319 0.269509 -5.648537 0.000000 0.000000 0.000000 2.140627 -9.922043 -1.729453 -10.743253 -10.863707 -14.385359 34.509995 -9.854107 2.942032 -20.711046 -3.858131 15.047451 0.000000 0.000000 0.000000 2.140627 -9.922043 -1.729453 0.000000 -0.000001 0.000000 21.530211 5.642777 1.114828 2.951614 1.865108 -0.160994 0.000000 0.000000 0.000000 2.950959 1.939448 -0.175155 -0.763036 3.030613 0.383893 0.000000 0.000000 0.000000 2.950959 1.939448 -0.175155 1.306150 -33.191291 4.056576 -22.439079 -14.543423 -67.584790 0.000012 -44.463708 -8.793770 0.000000 0.000000 0.000000 2.950959 1.939448 -0.175155 9.474266 21.562349 -11.639587 -44.239060 10.875446 78.236805 0.000041 50.076427 2.035026 0.000000 0.000000 0.000000 
0.933179 89.241135 0.791731 0.000000 0.000000 0.000000 2.219742 -9.557368 -1.696261 -42.293983 0.970873 8.253174 36.574133 -0.169194 3.039001 3.621374 0.276143 -5.493466 0.000000 0.000000 0.000000 2.219742 -9.557368 -1.696261 -10.219043 -10.994061 -14.419586 34.054456 -10.140215 2.917608 -20.710860 -3.944055 15.325981 0.000000 0.000000 0.000000 2.219742 -9.557368 -1.696261 0.000000 0.000000 0.000000 21.481712 5.616068 0.856791 2.933342 1.930218 -0.273806 0.000000 0.000000 0.000000 2.932958 2.004093 -0.288579 -0.788116 3.015418 0.413127 0.000000 0.000000 0.000000 2.932958 2.004093 -0.288579 1.253887 -33.456814 4.134831 -22.076225 -14.578451 -67.548146 0.000023 -44.717030 -8.228631 0.000000 0.000000 0.000000 2.932958 2.004093 -0.288579 9.408118 21.067913 -11.442653 -44.479858 11.089958 78.693382 -0.000003 49.791007 1.848528 0.000000 0.000000 0.000000 
1.023014 89.231468 1.055387 0.000000 0.000000 0.000000 2.299405 -9.215867 -1.651473 -42.369562 1.021732 7.973047 36.769183 -0.365190 3.080786 3.398458 0.281753 -5.345317 0.000000 0.000000 0.000000 2.299405 -9.215867 -1.651473 -9.712380 -11.062286 -14.458160 33.639587 -10.454533 2.916099 -20.722895 -4.029975 15.598699 0.000000 0.000000 0.000000 2.299405 -9.215867 -1.651473 0.000000 0.000000 0.000000 21.429054 5.584894 0.598709 2.917126 1.985257 -0.390848 0.000000 0.000000 0.000000 2.916586 2.058882 -0.406592 -0.814507 2.994744 0.445304 0.000000 0.000000 0.000000 2.916586 2.058882 -0.406592 1.216770 -33.714483 4.232021 -21.704815 -14.643560 -67.511420 0.000019 -44.942532 -7.663739 0.000000 0.000000 0.000000 2.916586 2.058882 -0.406592 9.352114 20.644018 -11.270548 -44.692141 11.251934 79.128500 0.000001 49.534202 1.683203 0.000000 0.000000 0.000000 
1.106458 89.217438 1.315517 0.000000 0.000000 0.000000 2.379181 -8.896934 -1.599031 -42.443882 1.084277 7.703670 36.974242 -0.555965 3.124044 3.166969 0.290013 -5.205302 0.000000 0.000000 0.000000 2.379181 -8.896934 -1.599031 -9.233678 -11.114010 -14.498328 33.258633 -10.762630 2.908733 -20.745274 -4.114028 15.867474 0.000000 0.000000 0.000000 2.379181 -8.896934 -1.599031 0.000000 -0.000001 0.000000 21.379868 5.548203 0.340437 2.896512 2.031293 -0.507782 0.000000 0.000000 0.000000 2.895729 2.104702 -0.524032 -0.839066 2.978216 0.482593 0.000000 0.000000 0.000000 2.895729 2.104702 -0.524032 1.196600 -33.968822 4.341377 -21.324035 -14.743440 -67.469128 0.000000 -45.137049 -7.099036 0.000000 0.000000 0.000000 2.895729 2.104702 -0.524032 9.328152 20.301064 -11.130543 -44.882915 11.356082 79.521318 -0.000031 49.310619 1.545398 0.000000 0.000000 0.000000 
1.184029 89.199318 1.571249 0.000000 0.000000 0.000000 2.458690 -8.600781 -1.542749 -42.515141 1.125633 7.443667 37.191237 -0.709862 3.159004 2.926768 0.295883 -5.078188 0.000000 0.000000 0.000000 2.458690 -8.600781 -1.542749 -8.780842 -11.150794 -14.533910 32.905724 -11.062828 2.891119 -20.774469 -4.198958 16.132333 0.000000 0.000000 0.000000 2.458690 -8.600781 -1.542749 0.000000 0.000000 0.000000 21.328031 5.503892 0.088498 2.878259 2.069779 -0.624885 0.000000 0.000000 0.000000 2.876960 2.143172 -0.641692 -0.862946 2.957669 0.521622 0.000000 0.000000 0.000000 2.876960 2.143172 -0.641692 1.177297 -34.220668 4.459817 -20.925145 -14.883119 -67.421207 0.000033 -45.299990 -6.535487 0.000000 0.000000 0.000000 2.876960 2.143172 -0.641692 9.326600 20.046028 -11.021185 -45.044285 11.395510 79.862240 0.000016 49.125330 1.440794 0.000000 0.000000 0.000000 
1.256096 89.177704 1.821760 0.000000 0.000000 0.000000 2.537991 -8.328059 -1.485742 -42.589802 1.183625 7.192446 37.420715 -0.859866 3.214737 2.678713 0.302532 -4.966432 0.000000 0.000000 0.000000 2.537991 -8.328059 -1.485742 -8.346371 -11.149328 -14.561733 32.579514 -11.376524 2.878401 -20.807430 -4.282475 16.392328 0.000000 0.000000 0.000000 2.537991 -8.328059 -1.485742 0.000000 0.000000 0.000000 21.272856 5.453562 -0.156094 2.863283 2.101393 -0.739296 0.000000 0.000000 0.000000 2.861342 2.174722 -0.756903 -0.885596 2.936175 0.562405 0.000000 0.000000 0.000000 2.861342 2.174722 -0.756903 1.163590 -34.475072 4.583103 -20.508685 -15.062929 -67.358916 0.000012 -45.434869 -5.974988 0.000000 0.000000 0.000000 2.861342 2.174722 -0.756903 9.329343 19.881323 -10.944745 -45.155129 11.364812 80.149695 0.000038 48.985014 1.376355 0.000000 0.000000 0.000000 
1.323082 89.153313 2.066483 0.000000 0.000000 0.000000 2.617788 -8.079246 -1.430212 -42.662953 1.210614 6.951416 37.661643 -0.967902 3.263944 2.422886 0.309506 -4.870817 0.000000 0.000000 0.000000 2.617788 -8.079246 -1.430212 -7.942538 -11.161992 -14.579768 32.267692 -11.660087 2.837619 -20.840184 -4.364486 16.648158 0.000000 0.000000 0.000000 2.617788 -8.079246 -1.430212 0.000000 0.000000 0.000000 21.216666 5.395064 -0.398329 2.849304 2.129480 -0.844700 0.000000 0.000000 0.000000 2.847443 2.202041 -0.862805 -0.906528 2.913410 0.602681 0.000000 0.000000 0.000000 2.847443 2.202041 -0.862805 1.163065 -34.736436 4.700199 -20.077614 -15.281490 -67.271954 0.000033 -45.545908 -5.419473 0.000000 0.000000 0.000000 2.847443 2.202041 -0.862805 9.325769 19.801676 -10.910307 -45.200409 11.259146 80.387911 -0.001077 48.894261 1.360705 0.000000 0.000000 0.000000 
